<?xml version="1.0" encoding="UTF-8" standalone="no"?>
<!-- Created with Inkscape (http://www.inkscape.org/) -->

<svg
   width="46.046803mm"
   height="44.021088mm"
   viewBox="0 0 46.046802 44.021085"
   version="1.1"
   id="svg1"
   xml:space="preserve"
   inkscape:version="1.4.1-rc (06eac75fbf, 2025-03-29)"
   sodipodi:docname="icon.svg"
   xmlns:inkscape="http://www.inkscape.org/namespaces/inkscape"
   xmlns:sodipodi="http://sodipodi.sourceforge.net/DTD/sodipodi-0.dtd"
   xmlns="http://www.w3.org/2000/svg"
   xmlns:svg="http://www.w3.org/2000/svg"><sodipodi:namedview
     id="namedview1"
     pagecolor="#ffffff"
     bordercolor="#000000"
     borderopacity="0.25"
     inkscape:showpageshadow="2"
     inkscape:pageopacity="0.0"
     inkscape:pagecheckerboard="0"
     inkscape:deskcolor="#d1d1d1"
     inkscape:document-units="mm"
     inkscape:zoom="1.4712202"
     inkscape:cx="213.76814"
     inkscape:cy="87.342466"
     inkscape:window-width="1528"
     inkscape:window-height="836"
     inkscape:window-x="72"
     inkscape:window-y="27"
     inkscape:window-maximized="1"
     inkscape:current-layer="layer1" /><defs
     id="defs1" /><g
     inkscape:label="Layer 1"
     inkscape:groupmode="layer"
     id="layer1"
     transform="translate(-28.937147,-22.330102)"><g
       id="g1"
       transform="translate(-57.728442)"><path
         id="path5-9-0-67-3"
         style="fill:#000000;fill-opacity:1;stroke:#000000;stroke-width:0;stroke-dasharray:none;paint-order:stroke fill markers"
         d="M 107.5253,22.330102 A 23.164585,22.135048 0 0 0 86.665589,42.176953 h 11.471652 a 11.353507,11.839678 0 0 1 9.388059,-9.462472 z m 4.32738,0 v 10.56473 a 11.353507,11.839678 0 0 1 8.51111,9.282121 h 12.3486 A 23.164585,22.135048 0 0 0 111.85268,22.330102 Z M 86.665589,46.503821 A 23.164585,22.135048 0 0 0 107.5253,66.351188 V 56.107885 a 11.353507,11.839678 0 0 1 -9.421132,-9.604064 z m 33.721971,0 a 11.353507,11.839678 0 0 1 -8.53488,9.371004 v 10.476363 a 23.164585,22.135048 0 0 0 20.85971,-19.847367 z" /><rect
         style="fill:#000000;fill-opacity:1;stroke-width:0.184917"
         id="rect1-6"
         width="4.3269897"
         height="23.416054"
         x="107.5255"
         y="32.709942" /><rect
         style="fill:#000000;fill-opacity:1;stroke-width:0.18053"
         id="rect1-12-0"
         width="4.3269897"
         height="22.318153"
         x="42.177151"
         y="-120.44953"
         transform="rotate(90)" /></g></g></svg>
