<?xml version="1.0" encoding="UTF-8" standalone="no"?>
<!-- Created with Inkscape (http://www.inkscape.org/) -->

<svg
   width="46.26384mm"
   height="44.210743mm"
   viewBox="0 0 46.263839 44.21074"
   version="1.1"
   id="svg1"
   xml:space="preserve"
   inkscape:version="1.4.1-rc (832c77b156, 2025-02-28)"
   sodipodi:docname="icon.svg"
   xmlns:inkscape="http://www.inkscape.org/namespaces/inkscape"
   xmlns:sodipodi="http://sodipodi.sourceforge.net/DTD/sodipodi-0.dtd"
   xmlns="http://www.w3.org/2000/svg"
   xmlns:svg="http://www.w3.org/2000/svg"><sodipodi:namedview
     id="namedview1"
     pagecolor="#ffffff"
     bordercolor="#000000"
     borderopacity="0.25"
     inkscape:showpageshadow="2"
     inkscape:pageopacity="0.0"
     inkscape:pagecheckerboard="0"
     inkscape:deskcolor="#d1d1d1"
     inkscape:document-units="mm"
     inkscape:zoom="3.7459291"
     inkscape:cx="102.91172"
     inkscape:cy="106.64911"
     inkscape:window-width="1528"
     inkscape:window-height="836"
     inkscape:window-x="72"
     inkscape:window-y="27"
     inkscape:window-maximized="1"
     inkscape:current-layer="layer1" /><defs
     id="defs1" /><g
     inkscape:label="Layer 1"
     inkscape:groupmode="layer"
     id="layer1"
     transform="translate(-28.58438,-22.067586)"><path
       id="path5-9-0-67"
       style="fill:#000000;fill-opacity:1;stroke:#000000;stroke-width:0;stroke-dasharray:none;paint-order:stroke fill markers"
       d="M 50.40372 22.100142 A 23.164585 22.135048 0 0 0 28.621587 42.860632 L 37.699586 42.860632 A 14.078117 14.078117 0 0 1 50.40372 30.156498 L 50.40372 22.100142 z M 53.028883 22.100142 L 53.028883 30.156498 A 14.078117 14.078117 0 0 1 65.733017 42.860632 L 74.811016 42.860632 A 23.164585 22.135048 0 0 0 53.028883 22.100142 z M 28.621587 45.485278 A 23.164585 22.135048 0 0 0 50.40372 66.245768 L 50.40372 58.189412 A 14.078117 14.078117 0 0 1 37.699586 45.485278 L 28.621587 45.485278 z M 65.733017 45.485278 A 14.078117 14.078117 0 0 1 53.028883 58.189412 L 53.028883 66.245768 A 23.164585 22.135048 0 0 0 74.811016 45.485278 L 65.733017 45.485278 z " /><rect
       style="fill:#000000;fill-opacity:1;stroke-width:0.17174"
       id="rect1-31"
       width="2.6249914"
       height="28.326128"
       x="50.403805"
       y="30.045206" /><rect
       style="fill:#000000;fill-opacity:1;stroke-width:0.17174"
       id="rect1-31-4"
       width="2.6249914"
       height="28.326128"
       x="42.860458"
       y="-65.879364"
       transform="rotate(90)" /></g></svg>
