<?xml version="1.0" encoding="UTF-8" standalone="no"?>
<!-- Created with Inkscape (http://www.inkscape.org/) -->

<svg
   width="46.26384mm"
   height="44.210743mm"
   viewBox="0 0 46.263839 44.21074"
   version="1.1"
   id="svg1"
   xml:space="preserve"
   inkscape:version="1.4.1-rc (832c77b156, 2025-02-28)"
   sodipodi:docname="icon.svg"
   xmlns:inkscape="http://www.inkscape.org/namespaces/inkscape"
   xmlns:sodipodi="http://sodipodi.sourceforge.net/DTD/sodipodi-0.dtd"
   xmlns="http://www.w3.org/2000/svg"
   xmlns:svg="http://www.w3.org/2000/svg"><sodipodi:namedview
     id="namedview1"
     pagecolor="#ffffff"
     bordercolor="#000000"
     borderopacity="0.25"
     inkscape:showpageshadow="2"
     inkscape:pageopacity="0.0"
     inkscape:pagecheckerboard="0"
     inkscape:deskcolor="#d1d1d1"
     inkscape:document-units="mm"
     inkscape:zoom="2.3235938"
     inkscape:cx="116.41449"
     inkscape:cy="106.51603"
     inkscape:window-width="1528"
     inkscape:window-height="836"
     inkscape:window-x="72"
     inkscape:window-y="27"
     inkscape:window-maximized="1"
     inkscape:current-layer="layer1" /><defs
     id="defs1" /><g
     inkscape:label="Layer 1"
     inkscape:groupmode="layer"
     id="layer1"
     transform="translate(-28.58438,-22.067586)"><path
       id="path5-9-0-67"
       style="fill:#000000;fill-opacity:1;stroke:#000000;stroke-width:0;stroke-dasharray:none;paint-order:stroke fill markers"
       d="M 49.208444 22.19626 A 23.164585 22.135048 0 0 0 28.731658 41.664839 L 40.232765 41.664839 A 11.353507 11.839678 0 0 1 49.208444 32.608545 L 49.208444 22.19626 z M 54.224159 22.19626 L 54.224159 32.819385 A 11.353507 11.839678 0 0 1 62.322372 41.664839 L 74.700945 41.664839 A 23.164585 22.135048 0 0 0 54.224159 22.19626 z M 28.731658 46.681071 A 23.164585 22.135048 0 0 0 49.208444 66.14965 L 49.208444 55.878442 A 11.353507 11.839678 0 0 1 40.196074 46.681071 L 28.731658 46.681071 z M 62.348727 46.681071 A 11.353507 11.839678 0 0 1 54.224159 55.615926 L 54.224159 66.14965 A 23.164585 22.135048 0 0 0 74.700945 46.681071 L 62.348727 46.681071 z " /><rect
       style="fill:#000000;fill-opacity:1;stroke-width:0.21656"
       id="rect1-1"
       width="5.016223"
       height="23.5697"
       x="49.208191"
       y="32.501972" /><rect
       style="fill:#000000;fill-opacity:1;stroke-width:0.212334"
       id="rect1-1-4"
       width="5.016223"
       height="22.658754"
       x="41.664845"
       y="-62.590206"
       transform="rotate(90)" /></g></svg>
