<?xml version="1.0" encoding="UTF-8" standalone="no"?>
<!-- Created with Inkscape (http://www.inkscape.org/) -->

<svg
   width="138.12987mm"
   height="124.9875mm"
   viewBox="0 0 138.12987 124.98749"
   version="1.1"
   id="svg1"
   xml:space="preserve"
   inkscape:version="1.3.1 (9b9bdc1480, 2023-11-25, custom)"
   sodipodi:docname="square-title.svg"
   xmlns:inkscape="http://www.inkscape.org/namespaces/inkscape"
   xmlns:sodipodi="http://sodipodi.sourceforge.net/DTD/sodipodi-0.dtd"
   xmlns="http://www.w3.org/2000/svg"
   xmlns:svg="http://www.w3.org/2000/svg"><sodipodi:namedview
     id="namedview1"
     pagecolor="#ffffff"
     bordercolor="#000000"
     borderopacity="0.25"
     inkscape:showpageshadow="2"
     inkscape:pageopacity="0.0"
     inkscape:pagecheckerboard="0"
     inkscape:deskcolor="#d1d1d1"
     inkscape:document-units="mm"
     inkscape:zoom="0.71212445"
     inkscape:cx="247.84994"
     inkscape:cy="206.42459"
     inkscape:window-width="1528"
     inkscape:window-height="836"
     inkscape:window-x="72"
     inkscape:window-y="27"
     inkscape:window-maximized="1"
     inkscape:current-layer="layer1" /><defs
     id="defs1" /><g
     inkscape:label="Layer 1"
     inkscape:groupmode="layer"
     id="layer1"
     transform="translate(-11.896998,-17.871546)"><path
       style="fill:#000000"
       d="m 72.21944,142.52774 c -6.86104,-0.88412 -13.824459,-6.19688 -17.030092,-12.99317 -1.07306,-2.27499 -1.68851,-4.45644 -1.91555,-6.78954 l -0.16093,-1.65364 h 5.287833 5.28782 l 0.33322,1.52135 c 0.809349,3.69526 3.351079,7.1371 6.201519,8.3977 1.56023,0.69 4.83666,1.37145 5.13941,1.06891 0.10121,-0.10113 0.2256,-2.59065 0.27644,-5.53225 l 0.0924,-5.34836 -0.62159,-0.003 c -9.58276,-0.044 -11.337209,-0.11977 -11.337209,-0.48938 0,-0.61963 1.578319,-0.75923 6.885339,-0.609 l 4.94462,0.13997 0.1406,-5.68155 c 0.09,-3.63698 0.24655,-5.78749 0.43502,-5.97595 0.19682,-0.19683 0.29441,-2.07475 0.29441,-5.66546 0,-2.954074 0.10347,-5.371044 0.22993,-5.371044 0.71596,0 4.96533,0.85634 6.04312,1.21782 3.62773,1.21671 7.47044,3.693104 9.54087,6.148514 3.33158,3.95106 5.31186,8.55902 5.85619,13.62695 l 0.19452,1.81098 -5.04533,-0.18594 c -2.77494,-0.10226 -5.1129,-0.26236 -5.19547,-0.35577 -0.0826,-0.0934 -0.30083,-0.94375 -0.48502,-1.88963 -0.1842,-0.94589 -0.6415,-2.28519 -1.01622,-2.97622 -0.88798,-1.63754 -3.29398,-3.91561 -5.10978,-4.83807 -1.33918,-0.68034 -3.65167,-1.43572 -4.41749,-1.44299 -0.25442,-0.002 -0.33073,1.30825 -0.33073,5.68024 v 5.68338 l 5.68888,0.0713 c 6.72198,0.0842 7.72872,0.51484 1.78806,0.76475 -2.14779,0.0904 -4.70874,0.17965 -5.69101,0.19844 l -1.78593,0.0342 v 5.52551 5.52551 l 1.82431,-0.34761 c 4.92554,-0.93852 8.37162,-4.5486 9.18249,-9.61948 0.205,-1.28197 0.14586,-1.2709 6.02595,-1.1284 l 4.46504,0.1082 -0.16977,1.65703 c -0.30917,3.01776 -1.93301,7.01983 -3.93591,9.70036 -2.37501,3.17854 -3.32944,4.34696 -4.11939,5.04296 -3.3718,2.97081 -7.26652,4.66963 -11.74578,5.12334 l -1.78034,0.18034 -0.0717,-5.37192 c -0.0536,-4.01019 -0.15558,-5.39982 -0.40247,-5.48198 -0.25743,-0.0857 -0.33073,1.09685 -0.33073,5.33596 v 5.44601 l -0.99218,-0.0347 c -0.5457,-0.0191 -1.65601,-0.12024 -2.46735,-0.22479 z m 45.79286,-0.28628 c -6.43913,-1.67638 -12.34552,-6.63892 -14.97312,-12.58038 -0.67701,-1.53085 -1.51352,-4.80447 -1.81796,-7.11449 l -0.17435,-1.32291 4.98252,0.0816 4.98253,0.0816 0.63589,-0.67689 0.6359,-0.67688 h 5.33577 5.33576 l 0.17379,-5.58059 c 0.0956,-3.06933 0.25413,-5.71056 0.3523,-5.86942 0.41496,-0.67141 0.58026,1.02882 0.59874,6.15835 l 0.0195,5.42395 5.48916,0.0798 c 3.20584,0.0466 5.644,-0.0256 5.86141,-0.17356 0.50596,-0.34442 0.0152,-2.81066 -0.95459,-4.79768 -1.38842,-2.84459 -4.82481,-5.45171 -8.31736,-6.31022 -1.85641,-0.45632 -1.94173,-0.51167 -2.13332,-1.38373 -0.10977,-0.49961 -0.12397,-2.91814 -0.0316,-5.37451 l 0.16804,-4.466124 1.69316,0.15811 c 0.93124,0.087 2.48999,0.35053 3.46389,0.58571 2.17021,0.52408 6.59988,2.645514 8.37605,4.011414 4.2405,3.261 7.66493,9.89203 8.22392,15.92471 l 0.18143,1.95812 -5.05794,-0.14317 c -3.93293,-0.11134 -5.05794,-0.07 -5.05794,0.18587 0,0.42996 -2.86775,0.67128 -7.97742,0.67128 h -3.92883 v 5.4607 5.46071 l 1.5871,-0.14392 c 1.84707,-0.16748 4.46375,-1.30287 5.89124,-2.55621 1.54712,-1.3584 2.95944,-3.71336 3.6405,-6.07037 l 0.62152,-2.15091 h 4.97774 4.97773 v 1.30561 c 0,2.58759 -1.07236,6.4364 -2.10479,7.55432 -0.27062,0.29302 -0.76476,1.06855 -1.0981,1.7234 -0.78016,1.53265 -1.75325,2.77283 -4.20544,5.35972 -1.72995,1.82498 -2.35754,2.27878 -4.89479,3.53936 -2.99411,1.48756 -5.64826,2.18397 -8.40052,2.20419 l -1.25677,0.009 v -5.42396 c 0,-3.43958 -0.0968,-5.42396 -0.26459,-5.42396 -0.14552,0 -0.2734,0.50602 -0.28418,1.12448 -0.0108,0.61846 -0.0405,3.05857 -0.0661,5.42245 l -0.0465,4.29797 -1.5875,-0.0131 c -0.87313,-0.007 -2.48047,-0.24554 -3.57188,-0.52968 z m 4.90889,-20.81188 c -0.0997,-0.25978 -1.42681,-0.33819 -5.72378,-0.33819 h -5.594 l 0.17458,0.99218 c 0.55645,3.16251 2.1527,6.07531 4.08228,7.4493 1.39956,0.99657 4.0918,2.12197 5.59162,2.33738 l 1.45521,0.209 0.0719,-5.15574 c 0.0396,-2.83565 0.0135,-5.30793 -0.0578,-5.49393 z M 11.911296,142.20595 c -0.114765,0.0372 0.46781,-1.1255 1.515673,-2.69618 1.047863,-1.57068 2.350177,-3.46293 3.280151,-4.98152 0.654175,-1.06823 2.050499,-2.91671 2.815041,-4.31013 0.764542,-1.39342 2.794856,-4.58253 4.511808,-7.0869 1.716952,-2.50438 3.92466,-5.80357 4.906019,-7.33154 0.981358,-1.52797 2.447759,-3.70659 3.25867,-4.84139 l 1.474383,-2.06326 -9.357978,0.0789 -9.357978,0.0789 v -5.42395 -5.423964 l 17.560097,0.0717 c 6.596595,0.1608 13.336917,0.0405 19.888724,0.53825 0.13261,0.0114 -0.482554,1.08671 -1.083784,1.705174 -1.106,1.1377 -3.49343,4.58393 -4.35324,6.28386 -0.25761,0.50932 -0.69583,1.16416 -0.97382,1.4552 -0.82654,0.86535 -2.245925,2.81517 -3.129835,4.29948 -0.454953,0.76399 -0.935798,1.38907 -1.068544,1.38907 -0.132747,0 -0.590543,0.69173 -1.017325,1.53718 -0.426783,0.84545 -0.958885,1.68899 -1.18245,1.87453 -0.223565,0.18555 -0.714549,0.86303 -1.091077,1.50553 -0.376527,0.64249 -0.776324,1.16817 -0.888437,1.16817 -0.112112,0 -0.605658,0.71438 -1.096769,1.5875 -0.49111,0.87313 -0.987255,1.5875 -1.102545,1.5875 -0.115289,0 -0.438192,0.44805 -0.717562,0.99566 -0.27937,0.54761 -0.801855,1.29175 -1.161079,1.65364 -0.359223,0.3619 -0.970579,1.25331 -1.358568,1.98091 -0.387989,0.7276 -1.054593,1.79917 -1.481342,2.38125 -0.426749,0.58208 -0.779862,1.18798 -0.784697,1.34643 -0.0062,0.20464 2.884981,0.25733 9.979231,0.18188 5.493409,-0.0584 10.115149,-0.009 10.270519,0.10877 0.19029,0.14482 0.24467,1.87747 0.1666,5.30823 l -0.1159,5.09323 H 32.414595 14.613912 Z M 99.09458,120.56218 c -0.0899,-0.14552 -0.0374,-0.26458 0.11667,-0.26458 0.15411,0 0.2802,0.11906 0.2802,0.26458 0,0.14552 -0.0525,0.26458 -0.11667,0.26458 -0.0642,0 -0.19027,-0.11906 -0.2802,-0.26458 z m -44.383852,-0.46011 -1.52136,-0.0955 v -1.18022 c 0,-3.40169 1.96405,-8.81118 4.334753,-11.93897 1.61914,-2.13622 4.85637,-5.14537 6.62235,-6.15576 2.909319,-1.664544 7.218769,-2.891524 10.236089,-2.914414 l 1.21715,-0.009 0.17192,2.421904 c 0.0945,1.33204 0.17191,3.77282 0.17191,5.42396 v 3.00206 h -0.87802 c -1.91166,0 -4.83605,1.20777 -7.35976,3.03958 -1.48439,1.07743 -2.74445,3.2564 -3.291399,5.69167 -0.21244,0.94588 -0.44599,1.98768 -0.51899,2.3151 -0.13072,0.58622 -0.1903,0.59455 -3.89802,0.54529 -2.0709,-0.0275 -4.449883,-0.093 -5.286623,-0.1455 z m 46.456972,-1.3748 c 0.51971,-4.97233 1.98232,-8.66105 5.0517,-12.74042 3.47416,-4.61735 7.97648,-7.102094 14.50486,-8.004934 l 2.57969,-0.35675 0.0472,4.721634 c 0.026,2.5969 0.0557,4.98491 0.0661,5.30669 0.0164,0.50866 -0.25751,0.66397 -2.09776,1.18932 -3.34335,0.95446 -5.19297,1.98817 -6.72809,3.76018 -1.50109,1.73273 -1.89413,2.65887 -2.39526,5.64408 l -0.34422,2.05053 h -5.42422 -5.42422 z M 25.612328,89.936656 c -0.640763,-1.12779 -2.211874,-4.16388 -3.491359,-6.74688 -2.188907,-4.41891 -2.617499,-5.16319 -2.51393,-4.36562 0.02362,0.1819 0.02884,3.15846 0.0116,6.61458 l -0.03135,6.28386 H 17.17191 14.75653 l 0.194197,-11.31094 c 0.106809,-6.22102 0.213856,-11.33317 0.237883,-11.36035 0.02403,-0.0272 1.219452,-0.0731 2.656498,-0.10211 l 2.612813,-0.0527 0.744212,2.04128 c 0.409316,1.12271 1.820768,4.19454 3.136559,6.8263 1.31579,2.63176 2.392347,4.94405 2.392347,5.13843 0,0.97542 0.651963,-0.0174 2.504336,-3.81377 1.11833,-2.29195 2.164334,-4.40531 2.324454,-4.69635 0.160121,-0.29104 0.872616,-1.64515 1.583322,-3.00912 l 1.292195,-2.47996 2.64039,-0.06 2.64039,-0.06 -0.200476,1.21703 c -0.110262,0.66937 -0.199327,5.8307 -0.197923,11.46963 l 0.0026,10.25261 h -2.458163 -2.458162 l -0.03647,-1.25677 c -0.07045,-2.42781 0.07224,-11.84592 0.187401,-12.36927 0.07648,-0.3476 0.0127,-0.3022 -0.185901,0.13229 -0.166287,0.3638 -0.685628,1.50108 -1.154091,2.52728 -0.468464,1.0262 -1.222509,2.28809 -1.675656,2.8042 -0.453147,0.51611 -1.048707,1.46242 -1.323466,2.10293 -0.274758,0.6405 -0.797601,1.60342 -1.161872,2.13983 -0.364272,0.53641 -0.887108,1.69625 -1.161859,2.57743 -0.27475,0.88117 -0.637954,1.60315 -0.807119,1.6044 -0.169165,10e-4 -0.831833,-0.92047 -1.472596,-2.04826 z m 21.8885,1.69607 c -2.618656,-0.86691 -4.399741,-2.54294 -5.759631,-5.41991 -0.702696,-1.48661 -0.776572,-1.87422 -0.662113,-3.47395 0.159625,-2.23096 1.145417,-4.08677 3.20611,-6.03569 2.360694,-2.23264 5.019834,-2.91759 7.982804,-2.05623 1.31493,0.38226 1.85064,0.74725 3.46249,2.3591 2.084683,2.08469 2.478143,2.9544 2.568533,5.67766 l 0.0497,1.49826 -3.307293,0.2072 c -1.81902,0.11396 -4.69318,0.21074 -6.38703,0.21506 -3.03186,0.008 -3.07758,0.0169 -2.94068,0.58655 0.37242,1.54975 3.48575,3.30921 5.20218,2.93995 1.26881,-0.27297 2.12569,-0.79705 2.52594,-1.54494 0.20135,-0.37621 0.48196,-0.68403 0.62358,-0.68403 0.75755,0 3.886423,1.1275 3.886423,1.40048 0,0.52019 -2.956703,3.23951 -4.239273,3.89893 -1.44836,0.74466 -4.60381,0.96388 -6.21177,0.43156 z m 5.09323,-10.4921 c 1.27015,-0.002 1.39769,-0.29306 0.71003,-1.62285 -0.51913,-1.00388 -1.7987,-1.55352 -3.61667,-1.55352 -1.6779,0 -3.11096,0.83511 -3.64484,2.12403 -0.50054,1.2084 -0.0906,1.3774 2.91346,1.20117 1.38245,-0.0811 3.01956,-0.14807 3.63802,-0.14883 z m 13.127222,10.59709 c -1.374859,-0.33224 -2.504059,-1.33157 -3.184819,-2.81857 -0.6124,-1.33766 -0.63592,-1.59719 -0.56136,-6.19599 l 0.0778,-4.79986 -1.52184,0.0866 -1.52184,0.0866 4.9e-4,-1.52136 c 2.6e-4,-0.83674 10e-4,-1.60841 0.003,-1.71482 10e-4,-0.10641 0.62632,-0.19571 1.38906,-0.19844 l 1.38679,-0.005 -0.0733,-2.44739 -0.0733,-2.4474 h 1.42545 c 0.78399,0 1.977839,-0.0757 2.652989,-0.16825 l 1.22755,-0.16826 v 2.64206 2.64206 l 1.99817,-0.12823 1.99816,-0.12824 -0.0799,1.84592 -0.0799,1.84592 -1.74994,-0.12342 c -1.05482,-0.0744 -1.8171,-0.0148 -1.91901,0.15013 -0.093,0.15046 -0.24576,2.0454 -0.3395,4.21099 -0.22128,5.11236 -0.195,5.1688 2.29847,4.93705 l 1.84227,-0.17122 v 2.12418 2.12417 l -1.52135,0.17345 c -0.83675,0.0954 -1.81901,0.21716 -2.18281,0.27057 -0.36381,0.0534 -1.03476,0.007 -1.49102,-0.10334 z m 33.3733,-0.008 c -1.62944,-0.17564 -3.26067,-1.10767 -5.17867,-2.95891 -1.9564,-1.8883 -2.73723,-3.54087 -2.72964,-5.77709 0.007,-2.06582 0.60707,-3.55547 2.33876,-5.80592 1.73233,-2.2513 3.45542,-3.05999 6.51992,-3.05999 2.12244,0 2.40957,0.0692 4.32673,1.04227 1.12939,0.57325 2.55457,1.52932 3.16707,2.1246 1.33037,1.29297 2.05427,4.22951 2.05427,5.48104 0,1.29893 -1.72091,5.2342 -3.89984,7.52062 -1.1436,1.20002 -3.67077,1.74898 -6.5986,1.43338 z m 2.90321,-5.07581 c 2.36139,-1.85747 2.89491,-4.19501 1.45397,-6.37043 -1.3356,-2.01639 -2.50231,-2.50688 -4.43779,-1.86568 -2.79527,0.92605 -3.79386,2.42567 -3.11571,4.679 0.46765,1.55389 1.60317,3.24034 2.51602,3.73675 1.04983,0.5709 2.73687,0.48633 3.58351,-0.17964 z m -28.90143,-6.83756 0.0691,-11.77396 2.48816,-0.0909 2.48816,-0.0909 -0.15153,4.15169 -0.15153,4.15169 0.57379,-0.52412 c 1.81665,-1.65939 4.75951,-2.00953 6.79149,-0.80805 1.5936,0.94226 2.49933,1.93927 3.19884,3.52115 0.54473,1.23186 0.57937,1.67897 0.54962,7.09272 -0.0175,3.1779 -0.10472,5.89606 -0.19391,6.04038 -0.0912,0.14761 -1.18752,0.24164 -2.50624,0.21496 l -2.34406,-0.0474 -0.0797,-6.07308 -0.0797,-6.07309 -0.86407,-0.77158 c -0.9637,-0.86055 -1.75062,-0.95751 -3.12165,-0.38466 -1.44569,0.60405 -1.95411,2.01147 -1.96296,5.43392 -0.004,1.52797 -0.0823,3.90922 -0.1742,5.29166 l -0.16701,2.51355 h -2.21578 -2.21577 z m -32.140634,-13.3651 c -2.771314,-1.01796 -5.481809,-4.00595 -6.030204,-6.64755 -0.605174,-2.91511 0.264146,-5.9693 2.248418,-7.89939 2.028,-1.97262 3.507226,-2.62194 6.225848,-2.7329 2.96004,-0.12082 4.78078,0.52592 6.59879,2.34393 2.30056,2.30056 3.153368,6.1443 2.513748,8.68448 -0.68707,2.72861 -2.909928,5.4886 -5.492648,6.25559 -1.63945,0.48686 -4.732966,0.48474 -6.063952,-0.004 z m 5.265332,-4.65323 c 1.19729,-0.73997 1.94123,-2.25333 1.94123,-3.94894 0,-1.98613 -0.89593,-3.39838 -2.612,-4.11729 -1.930397,-0.8087 -3.497763,-0.36351 -5.146946,1.46194 -0.834621,0.92383 -0.972304,1.25551 -0.972304,2.34232 0,1.61448 0.898233,3.42859 2.089648,4.22035 1.211922,0.80539 3.43275,0.82505 4.700372,0.0416 z m 8.91648,4.34221 c -0.16525,-0.6584 0.0276,-15.91048 0.20319,-16.0726 0.0537,-0.0495 1.205083,-0.17605 2.558673,-0.28111 l 2.46108,-0.19101 -0.17432,1.9474 c -0.1682,1.87907 -0.173965,13.47162 0.119775,14.65262 0.16506,0.66364 -0.454102,0.26014 -3.085425,0.47684 -1.850343,0.15238 -1.927713,0.0865 -2.082973,-0.53214 z m 8.075233,0.26579 c -0.0558,-0.26416 -0.042,-4.2903 0.0308,-8.94696 l 0.13229,-8.46666 0.66146,0.0467 c 0.3638,0.0257 1.445379,0.0761 2.403499,0.11193 l 1.74203,0.0652 -0.20916,1.07869 c -0.11504,0.59328 -0.21434,1.17592 -0.22068,1.29476 -0.006,0.11884 0.56327,-0.37404 1.26579,-1.0953 1.04557,-1.07344 1.54281,-1.37078 2.74064,-1.63884 1.27206,-0.28468 1.64706,-0.26645 2.86903,0.13942 1.92848,0.64054 3.53038,2.17258 4.24198,4.05699 0.43332,1.14748 0.59071,2.26827 0.67461,4.80395 0.0602,1.81901 0.15462,4.52768 0.20984,6.01927 l 0.10041,2.71198 h -2.46303 -2.46303 l -0.0882,-5.91298 c -0.0972,-6.51745 -0.0758,-6.4325 -1.84585,-7.33552 -1.47268,-0.7513 -2.34527,-0.65312 -3.57872,0.40266 l -1.06604,0.91249 -0.14956,5.37136 c -0.0823,2.95425 -0.24905,5.60949 -0.37065,5.90053 -0.16765,0.40128 -0.47686,0.53157 -1.27942,0.53909 -0.58208,0.005 -1.54843,0.10253 -2.147429,0.21572 -0.93474,0.17662 -1.10349,0.13772 -1.19063,-0.27451 z m 24.758789,0.16415 c -1.25993,-0.36637 -2.93774,-1.96694 -3.43972,-3.28137 -0.39866,-1.04385 -0.41587,-1.54989 -0.15311,-4.50011 0.16283,-1.8282 0.29606,-3.9766 0.29606,-4.77421 v -1.45021 H 83.28124 81.8877 l -0.0271,-1.03506 c -0.0149,-0.56928 -0.10447,-1.34318 -0.199,-1.71979 -0.17077,-0.68042 -0.16172,-0.68473 1.43884,-0.68473 h 1.6107 l -0.0843,-2.52573 c -0.0967,-2.89829 -0.33766,-2.65995 2.8779,-2.84704 1.49021,-0.0867 1.93574,-0.0277 2.05052,0.27139 0.0807,0.21018 0.14665,1.45339 0.14665,2.76267 v 2.38051 l 2.01398,-0.0871 2.01399,-0.0871 -0.1596,1.32292 c -0.0878,0.7276 -0.16064,1.68829 -0.1619,2.13487 l -0.002,0.81195 -1.87135,-0.24147 c -1.02924,-0.13281 -1.91564,-0.19719 -1.96976,-0.14306 -0.19322,0.19321 -0.21905,8.84972 -0.0273,9.15992 0.12127,0.19622 0.89279,0.31633 2.03197,0.31633 h 1.83647 v 1.83044 c 0,1.00675 0.0723,2.01878 0.1606,2.24896 0.13977,0.36424 -0.16048,0.41542 -2.31511,0.39465 -1.36164,-0.0131 -2.83762,-0.1291 -3.27997,-0.25773 z m -72.882207,-11.55851 -1.9e-5,-11.57551 6.48826,0.038 c 6.437125,0.0377 6.499495,0.0435 7.91385,0.73548 2.875765,1.40698 4.494536,4.02719 4.507666,7.2963 0.0095,2.36891 -0.580033,3.78358 -2.303858,5.5283 -2.079014,2.10422 -4.616229,2.9321 -8.999109,2.93637 l -2.050521,0.002 v 3.30729 3.30729 h -2.778125 -2.778125 z m 10.632492,0.18922 c 1.885981,-0.52381 3.223773,-3.02919 2.646436,-4.95617 -0.472033,-1.57551 -1.472607,-2.01344 -4.878388,-2.13521 l -2.844271,-0.10168 c 0,5.79345 -0.13146,6.58757 -0.104494,7.40802 l 1.983104,0.0578 c 1.222337,-8.1e-4 2.661263,-0.12336 3.197613,-0.27233 z m 31.239192,-7.78493 c -1.166263,-0.43137 -1.712604,-0.59082 -1.886955,-2.06861 -0.124288,-1.05345 0.157788,-2.4558 2.486053,-2.7973 2.155191,-0.31613 2.878893,0.18231 3.331223,1.67377 0.387783,1.27864 0.05522,1.78193 -0.670299,2.58802 -1.034303,1.14916 -1.888172,1.11153 -3.260022,0.60412 z m -7.349309,-5.4508 c -1.08539,-0.31582 -2.563235,-1.9619 -3.199515,-3.38086 -0.53421,-1.19132 -0.514541,-3.24793 -0.460015,-8.70804 l 0.15504,-1.65365 h -1.486029 -1.486032 v -1.87761 -1.87762 l 2.71772,0.0253 -0.07172,-2.28932 -1.7e-4,-2.44739 h 2.51354 2.51355 v 2.49313 2.49314 l 3.814195,-0.045 -0.01484,1.43672 c -0.0097,0.9351 -0.21852,1.74783 -0.27872,1.81627 -0.0602,0.0684 -0.93651,0.17118 -1.94735,0.2283 l -1.83788,0.10385 -0.0612,2.81441 c -0.11289,5.19207 -0.0983,5.35271 0.53411,5.86478 0.32066,0.25965 1.28863,0.55117 2.16969,0.65342 l 1.59073,0.18463 v 1.97401 c 0,1.08571 -0.10305,1.91032 -0.229,1.83248 -0.12596,-0.0778 -1.04869,0.0321 -2.05052,0.24437 -1.00184,0.21225 -1.837381,0.27436 -1.910141,0.26376 -0.0728,-0.0106 -0.535749,-0.0211 -0.975489,-0.14903 z m 15.087022,0.0884 c -0.436569,-0.0538 -1.397159,-0.26781 -2.134649,-0.47551 -1.75582,-0.49449 -4.37846,-2.9913 -5.33368,-5.07778 -1.768403,-3.86269 0.47449,-9.45751 4.60861,-11.49605 1.48512,-0.73231 1.83125,-0.79887 3.704169,-0.71228 4.97307,0.2299 8.51707,3.72517 8.99789,8.87415 l 0.15605,1.67111 -4.60232,0.0661 c -2.53128,0.0364 -5.63582,0.0647 -6.898979,0.063 l -2.29665,-0.003 0.55405,0.98579 c 0.56594,1.00695 1.69795,1.71427 3.334169,2.0833 1.20019,0.27069 3.46684,-0.33892 4.0812,-1.09762 l 0.48265,-0.59605 1.97322,0.61884 c 1.08528,0.34036 1.97323,0.76543 1.97323,0.9446 0,0.55026 -2.70181,2.80208 -4.10105,3.41802 -1.38638,0.61029 -3.15651,0.89899 -4.49791,0.73358 z m 4.89044,-10.5898 c -0.002,-0.10914 -0.27029,-0.66229 -0.59532,-1.22923 -0.7481,-1.3049 -2.05602,-2.01192 -3.72184,-2.01192 -2.085899,0 -3.455599,0.88161 -3.988619,2.56728 -0.1759,0.55627 -0.10205,0.58716 1.61551,0.67579 3.701149,0.19099 6.694479,0.19013 6.690269,-0.002 z m 36.59253,10.41377 c -2.5499,-0.83314 -5.17675,-3.06617 -6.32445,-5.37628 -0.73225,-1.47387 -0.67241,-5.04704 0.11356,-6.78091 0.71079,-1.56803 2.89228,-3.73993 4.82623,-4.80502 1.27379,-0.70151 1.68723,-0.79201 3.55793,-0.7788 1.8933,0.0134 2.31319,0.11545 3.97889,0.96731 4.36807,2.23388 6.5292,6.4111 5.4012,10.43992 -0.4389,1.56758 -3.29888,4.67246 -5.31436,5.76942 -1.65596,0.90129 -4.43768,1.15291 -6.239,0.56436 z m 5.11338,-5.30884 c 2.19015,-2.28577 2.24419,-5.31282 0.12665,-7.09461 -1.24495,-1.04756 -2.68225,-1.41079 -4.00925,-1.01322 -3.43541,1.02928 -4.76766,5.20638 -2.41809,7.5816 0.99238,1.00322 2.61526,1.69246 4.00125,1.69934 1.04268,0.005 1.29261,-0.12233 2.29944,-1.17311 z m -75.533371,-0.40858 c 0.06891,-6.22063 0.0011,-6.57334 -1.403643,-7.29976 -1.499703,-0.77552 -3.246424,-0.45384 -4.247727,0.78229 -0.400895,0.49492 -0.458039,1.26422 -0.464464,6.25289 l -0.0073,5.68854 -2.384841,0.0585 -2.384841,0.0585 0.07118,-8.43675 0.07118,-8.43676 1.366508,-0.17079 c 1.807564,-0.22592 3.346554,0.0579 3.146146,0.58011 -0.08211,0.21397 -0.227199,0.70539 -0.322426,1.09206 -0.16387,0.66538 -0.108235,0.64353 1.039115,-0.40815 1.406503,-1.28923 3.637459,-2.07175 5.278845,-1.85159 1.988669,0.26673 4.005755,2.23064 4.698285,4.57442 0.369691,1.25118 0.680545,9.75915 0.429943,11.76743 l -0.179388,1.43758 h -2.384783 -2.384782 z m 56.054251,3.04271 c -10e-4,-1.45521 -0.12298,-5.25271 -0.27027,-8.43889 -0.14728,-3.18618 -0.21236,-5.84849 -0.14461,-5.91624 0.0678,-0.0677 1.18474,-0.0392 2.48219,0.0635 l 2.35901,0.18671 0.23551,3.87745 c 0.20322,3.34575 0.23017,12.44756 0.0374,12.62524 -0.0366,0.0337 -1.10826,0.10326 -2.38159,0.15463 l -2.31514,0.0934 z m -76.109229,-9.32772 -0.04408,-11.83894 2.882458,-0.0823 2.882459,-0.0823 -0.06025,11.92194 -0.06025,11.92194 -2.778125,-7e-4 -2.778125,-7e-4 z m 62.062499,6.68829 c -0.0145,-2.76842 -0.10379,-6.55169 -0.19843,-8.40728 l -0.17207,-3.3738 2.57968,3.6e-4 c 1.41883,2e-4 2.57969,0.0677 2.57969,0.15005 0,0.0823 -0.10259,0.35022 -0.22798,0.59531 -0.12539,0.24509 -0.31213,0.80281 -0.41496,1.23938 l -0.18698,0.79375 1.14256,-1.11196 c 1.41166,-1.37384 2.70171,-1.93075 4.47245,-1.93075 h 1.3625 l -0.1899,2.05052 c -0.10444,1.12779 -0.22017,2.08281 -0.25718,2.12227 -0.037,0.0395 -0.86095,0.16731 -1.83099,0.28409 -1.49972,0.18055 -1.90254,0.34689 -2.69127,1.11136 -1.3232,1.2825 -1.49539,2.16153 -1.39698,7.13176 l 0.0864,4.36562 -2.31511,0.006 -2.3151,0.006 z m 42.47855,-2.3215 c 0.007,-4.11097 -0.0444,-7.93591 -0.11507,-8.49986 l -0.12852,-1.02539 2.42091,-0.0329 c 1.3315,-0.0181 2.48476,0.0306 2.56281,0.10829 0.078,0.0777 -0.0156,0.91111 -0.20806,1.85208 -0.23182,1.13329 -0.24972,1.53928 -0.053,1.20264 0.67827,-1.16096 2.21771,-2.6485 3.20733,-3.09921 0.58208,-0.2651 1.63946,-0.48462 2.34972,-0.48781 l 1.29139,-0.006 -0.16951,0.99219 c -0.0932,0.5457 -0.24483,1.67679 -0.33689,2.51354 l -0.16739,1.52135 h -1.59098 c -1.27959,0 -1.75687,0.12654 -2.43861,0.64652 -1.59257,1.21471 -1.80959,2.10417 -1.76285,7.22483 l 0.0417,4.56407 h -2.45817 -2.45817 z m 12.54226,-0.46303 c 0.0514,-1.23692 0.15044,-2.30848 0.22014,-2.38125 0.0697,-0.0728 3.92697,-0.17091 8.5717,-0.21812 l 8.44497,-0.0858 -0.003,1.54104 c -0.002,0.84758 -0.0769,1.98869 -0.16732,2.5358 l -0.16442,0.99476 -8.49777,-0.0687 -8.49778,-0.0687 z M 92.41618,22.744516 c -0.73037,-0.14085 -1.39139,-1.03958 -1.39139,-1.89174 0,-0.77307 0.92222,-2.3283 1.59375,-2.68769 0.26847,-0.14368 1.02309,-0.26123 1.67694,-0.26123 0.96916,0 1.29014,0.12881 1.73719,0.69713 0.73559,0.93516 0.69121,2.14481 -0.12263,3.34249 -0.60671,0.89285 -0.77782,0.98401 -1.78594,0.95143 -0.61322,-0.0198 -1.38178,-0.0875 -1.70792,-0.15039 z"
       id="path6"
       sodipodi:nodetypes="cscccssssccsscssssssscssssscscssscccssscssssccsscscccsscccccccssscsssssccsssscssscccssscccsssssccssssccccsscsssccsssczsssscccccssssssssssssssssssscscccsccsssccssscccscssssscccsscsssssccccsssscccssscsssssscccsscccsssssssscssscssssscscssssssssccsssccsscccscscccsscccccccsssscccssccssssssssssssssssssccccsssssscccssscccccsssssssccssssssssssscsssssccsscscsssssscccsssccscsssccsscccssscsssscccsccsssscsssccccssssscccccccsscccccscssssccscccccccccccccssscssscssssccccssssccccssscssscccssssccssssssssssssscsscsscccccssssssscccscccscssscccscccccccsccsssscsscssssscccscscssscsccsscsssccccsssccscccssssssssss" /><path
       d="m 134.47898,91.369326 c -0.77917,-0.21788 -1.7912,-0.658 -2.24896,-0.97806 -1.17455,-0.82123 -3.60308,-2.95185 -3.60707,-3.16458 -0.005,-0.26778 1.52901,-0.68523 3.22088,-0.87649 1.27892,-0.14457 1.58173,-0.0928 2.02015,0.34565 0.6835,0.6835 3.26901,1.6348 4.4432,1.6348 1.24751,0 2.65321,-1.30473 2.23919,-2.07835 -0.35459,-0.66255 -0.68363,-0.7743 -4.09289,-1.38996 -4.93527,-0.89124 -7.04554,-2.29761 -7.03431,-4.68793 0.009,-1.84125 0.77455,-3.26131 2.41624,-4.47995 0.77793,-0.57746 1.81913,-1.18523 2.31378,-1.35062 1.33285,-0.44562 4.75145,-0.37158 6.23851,0.13512 1.38051,0.47038 3.84232,2.60562 3.84232,3.33261 0,0.40161 -2.54889,1.78783 -3.28736,1.78783 -0.17215,0 -0.72331,-0.42679 -1.2248,-0.94843 -0.89563,-0.93161 -0.94348,-0.9467 -2.69911,-0.85117 -1.38731,0.0755 -1.91366,0.22361 -2.35187,0.66181 -1.14706,1.14707 -0.3818,1.64293 3.8746,2.51062 1.45521,0.29666 3.06411,0.752 3.57534,1.01188 1.13108,0.57497 2.35762,1.76479 2.67347,2.59345 0.35256,0.92494 0.28037,2.63036 -0.14626,3.45538 -0.46387,0.89701 -2.18842,2.48581 -3.37476,3.10911 -1.19655,0.62865 -4.91033,0.75295 -6.79029,0.22728 z"
       style="fill:#000000"
       id="path1-9"
       inkscape:transform-center-x="13.626551"
       inkscape:transform-center-y="-2.8712844" /><path
       d="m 127.46935,79.437396 -0.0691,-11.77396 -2.48816,-0.0909 -2.48816,-0.0909 0.15153,4.15169 0.1228,5.62838 -0.57379,-0.52412 c -1.81665,-1.65939 -4.75951,-2.00953 -6.79149,-0.80805 -1.5936,0.94226 -2.77965,1.84307 -3.19884,3.52115 -0.86999,3.48272 -0.98838,5.27656 0.0842,8.1791 0.89082,2.41079 2.48939,3.27458 5.73877,3.40978 3.24937,0.1352 6.51351,-2.02787 6.00633,-3.24545 l -1.21599,-2.91923 c 0,0 -0.90436,2.09095 -4.52541,1.30603 -3.62104,-0.78492 -1.43384,-5.57574 -1.43384,-5.57574 l 0.86407,-0.77158 c 0.9637,-0.86054 1.75062,-0.95751 3.12165,-0.38466 1.44569,0.60405 1.98284,0.53478 1.99169,3.95723 0.004,1.52797 0.0823,3.90922 0.1742,5.29166 l 0.16701,2.51355 h 2.21578 2.21577 z"
       style="fill:#000000"
       id="path1"
       sodipodi:nodetypes="ccccccsssszsczcsssccccc" /></g></svg>
